<?xml version="1.0" encoding="UTF-8" standalone="no"?>
<!-- Created with Inkscape (http://www.inkscape.org/) -->

<svg
   xmlns:dc="http://purl.org/dc/elements/1.1/"
   xmlns:cc="http://creativecommons.org/ns#"
   xmlns:rdf="http://www.w3.org/1999/02/22-rdf-syntax-ns#"
   xmlns:svg="http://www.w3.org/2000/svg"
   xmlns="http://www.w3.org/2000/svg"
   xmlns:sodipodi="http://sodipodi.sourceforge.net/DTD/sodipodi-0.dtd"
   xmlns:inkscape="http://www.inkscape.org/namespaces/inkscape"
   width="180.13966mm"
   height="118.93494mm"
   viewBox="0 0 180.13966 118.93494"
   version="1.1"
   id="svg1027"
   inkscape:version="0.92.3 (d244b95, 2018-08-02)"
   sodipodi:docname="pyg_logo.svg"
   inkscape:export-filename="/home/fraemisch/pyg_logo.png"
   inkscape:export-xdpi="282.00342"
   inkscape:export-ydpi="282.00342">
  <defs
     id="defs1021" />
  <sodipodi:namedview
     id="base"
     pagecolor="#ffffff"
     bordercolor="#666666"
     borderopacity="1.0"
     inkscape:pageopacity="0.0"
     inkscape:pageshadow="2"
     inkscape:zoom="0.7"
     inkscape:cx="270.00153"
     inkscape:cy="118.56515"
     inkscape:document-units="mm"
     inkscape:current-layer="layer1"
     showgrid="false"
     inkscape:window-width="1916"
     inkscape:window-height="1164"
     inkscape:window-x="0"
     inkscape:window-y="16"
     inkscape:window-maximized="0"
     fit-margin-top="0"
     fit-margin-left="0"
     fit-margin-right="0"
     fit-margin-bottom="0"
     showguides="true"
     inkscape:guide-bbox="true" />
  <metadata
     id="metadata1024">
    <rdf:RDF>
      <cc:Work
         rdf:about="">
        <dc:format>image/svg+xml</dc:format>
        <dc:type
           rdf:resource="http://purl.org/dc/dcmitype/StillImage" />
        <dc:title />
      </cc:Work>
    </rdf:RDF>
  </metadata>
  <g
     inkscape:label="Layer 1"
     inkscape:groupmode="layer"
     id="layer1"
     transform="translate(-20.045216,-13.96157)">
    <rect
       style="opacity:1;fill:#decd87;fill-opacity:1;stroke:none;stroke-width:0.26499999;stroke-linejoin:round;stroke-miterlimit:4;stroke-dasharray:none;stroke-opacity:1;paint-order:markers fill stroke"
       id="rect1621"
       width="180.13966"
       height="118.93494"
       x="20.045216"
       y="13.96157" />
    <g
       id="g5077"
       transform="translate(0.52914047,-0.52916813)">
      <circle
         r="39.493996"
         cy="73.958206"
         cx="109.58591"
         id="path1632"
         style="opacity:1;fill:#e9ddaf;fill-opacity:1;stroke:none;stroke-width:4.65188885;stroke-linejoin:round;stroke-miterlimit:4;stroke-dasharray:none;stroke-opacity:1;paint-order:markers fill stroke" />
      <g
         transform="translate(-1.4353333e-5,-0.5291603)"
         id="g5069">
        <path
           style="opacity:1;fill:#000000;fill-opacity:1;stroke:none;stroke-width:0.37687293;stroke-linejoin:round;stroke-miterlimit:4;stroke-dasharray:none;stroke-opacity:1;paint-order:markers fill stroke"
           d="m 110.64604,39.69566 v 3.718118 h -3.10007 v 6.716903 l -1.11569,0.03927 -2.16214,8.362796 -1.01028,1.452107 c -1.70373,1.358038 -7.701145,6.22164 -3.428728,15.7856 0.893948,2.001144 2.008868,2.104141 1.560108,0.701249 -1.23549,-3.862348 -3.839085,-8.157871 1.57872,-14.876094 l 2.32234,-0.821137 2.94814,2.398302 1.59938,0.368453 h 0.38964 l -0.0501,7.300328 c 0.007,3.110685 -0.70998,4.830186 -0.40153,5.299935 0.30844,0.469749 1.46903,0.4441 1.80919,0 0.34017,-0.444098 -0.23549,-2.170192 -0.22427,-5.299935 l 0.0496,-7.300328 h 0.69505 l 1.29552,-0.368453 2.38849,-2.398302 1.88154,0.821137 c 6.47331,6.484363 3.33549,11.180791 1.27899,14.876094 -0.67565,1.21407 0.66056,0.725419 1.45314,-0.701249 4.95182,-8.913524 -0.63968,-13.659165 -2.96726,-15.7856 l -0.81804,-1.452107 -1.32291,-8.362796 -0.89814,-0.03876 v -6.717419 h -2.94918 V 39.69566 Z m -3.10007,15.18512 v 2.282031 h 2.29185 v 3.289721 l -1.31258,0.159162 -2.27428,-1.748213 z m 6.85075,0.404108 0.61443,3.578593 -1.84278,1.748213 -1.06298,-0.159162 v -3.289721 h 2.29133 z"
           id="rect1585"
           inkscape:connector-curvature="0"
           sodipodi:nodetypes="cccccccscccccccccccccccsccccccccccccccccccccccc" />
        <path
           inkscape:connector-curvature="0"
           id="path5027"
           style="font-style:normal;font-variant:normal;font-weight:normal;font-stretch:normal;font-size:40.29167557px;line-height:1.25;font-family:Dyuthi;-inkscape-font-specification:Dyuthi;letter-spacing:0px;word-spacing:0px;fill:#000000;fill-opacity:1;stroke:none;stroke-width:0.25182295"
           d="m 95.941913,84.290097 q 0,1.357484 -0.452495,2.439535 -0.550863,1.160747 -1.416504,1.514873 -1.790304,0.865641 -3.580608,0.21641 -1.573894,-0.570536 -1.947693,-1.731283 v -6.669374 q 0,-2.223124 1.868998,-2.833008 0.944336,-0.334452 1.829652,-0.196737 1.55422,0 2.616598,1.436178 1.082052,1.436178 1.082052,3.462566 z m -3.226482,7.692405 q 3.600281,0 6.098838,-2.655945 2.518231,-2.655946 2.518231,-6.472638 0,-3.737997 -2.518231,-6.393942 -2.498557,-2.655946 -6.098838,-2.655946 -2.242799,0 -4.170818,1.160747 v 0 q 0.01967,-0.413147 -0.354126,-0.826294 -0.295105,-0.334453 -0.786947,-0.334453 h -3.383871 q -0.531189,0 -0.826294,0.334453 -0.314779,0.354126 -0.314779,0.826294 v 21.995163 q 0,1.219771 0.786947,2.006715 0.786946,0.786947 2.006714,0.786947 h 0.07869 q 1.141072,0.0197 1.947693,-0.786947 0.845968,-0.845974 0.845968,-2.006715 v -6.138185 q 1.928019,1.160746 4.170818,1.160746 z" />
        <path
           inkscape:connector-curvature="0"
           id="path5029"
           style="font-style:normal;font-variant:normal;font-weight:normal;font-stretch:normal;font-size:40.29167557px;line-height:1.25;font-family:Dyuthi;-inkscape-font-specification:Dyuthi;letter-spacing:0px;word-spacing:0px;fill:#000000;fill-opacity:1;stroke:none;stroke-width:0.25182295"
           d="m 115.91878,70.47164 q -0.94434,0 -1.5739,0.491842 -0.78694,0.629557 -0.90499,1.298462 -1.33781,7.790773 -3.01007,11.292686 l -3.20681,-11.351707 q -0.25575,-0.944336 -0.92466,-1.259115 -1.08205,-0.472168 -1.47552,-0.472168 h -0.47217 q -1.35748,0 -2.12476,1.141073 -0.7476,1.160746 -0.17706,2.419861 3.54126,7.967837 4.68233,13.555159 v 0.05902 q 0,3.049419 -1.69193,3.875713 -0.72793,0.354126 -1.51488,0.373799 -1.00335,-0.01967 -1.43617,0.629558 -0.64923,1.101725 -0.64923,1.475525 v 0.03935 q 0.0197,1.455852 1.29846,1.947694 0.57053,0.21641 0.94433,0.314778 3.24616,0.668905 5.80374,-1.121399 2.30182,-1.573893 3.30517,-4.583965 5.39059,-16.152083 5.607,-16.761966 0.45249,-1.259115 -0.35413,-2.321493 -0.82629,-1.042705 -2.08541,-1.042705 z" />
        <path
           inkscape:connector-curvature="0"
           id="path5031"
           style="font-style:normal;font-variant:normal;font-weight:normal;font-stretch:normal;font-size:40.29167557px;line-height:1.25;font-family:Dyuthi;-inkscape-font-specification:Dyuthi;letter-spacing:0px;word-spacing:0px;fill:#000000;fill-opacity:1;stroke:none;stroke-width:0.25182295"
           d="m 131.68546,86.393158 q -0.0393,2.242798 -1.90834,2.872356 -0.94434,0.295105 -1.79031,0.157389 -1.55422,0 -2.65594,-1.436178 -1.08205,-1.436178 -1.08205,-3.462566 v -2.14443 q 0,-1.357483 0.49184,-2.439535 0.51151,-1.121399 1.37715,-1.55422 1.79031,-0.885315 3.58061,-0.177063 1.5739,0.570537 1.98704,1.731283 z m 0.96401,-11.843549 q -0.39347,0 -0.68858,0.295105 -0.27543,0.275431 -0.27543,0.649231 v 0 q -1.98704,-1.160747 -4.21016,-1.160747 -3.58061,0 -6.09884,2.655946 -2.51823,2.655945 -2.51823,6.43329 0,3.777344 2.51823,6.43329 2.51823,2.655945 6.09884,2.655945 2.22312,0 4.17082,-1.160746 0.13771,4.052776 -3.38388,4.052776 -2.34116,0 -4.38722,-0.03935 -1.47553,-0.01967 -2.00672,1.416505 l -0.0393,0.01967 q -0.35412,1.023031 0.25576,1.908345 0.64923,0.904994 1.73128,0.904994 2.28215,0.0197 3.95441,0.0393 0.27543,-0.0393 0.49184,-0.0393 0.29511,0.0197 0.51152,0.0393 3.56093,0.0393 5.88243,-1.908348 2.59692,-2.124758 2.65594,-6.236555 h 0.0394 V 76.949796 q 0,-0.964009 -0.72793,-1.672261 -0.70825,-0.727926 -1.67226,-0.727926 z" />
      </g>
    </g>
  </g>
</svg>
